#!OML:ASF H:\Punching\Project 1\Capture day 1\Session 1\female.ASF
:FULLY-SPECIFIED
:DEGREES
1465
root 1.57163 15.5629 8.02275 11.7013 -8.37496 -0.178405
lowerback 0.172401 -0.534735 -2.55307
upperback -5.42004 -0.785583 0.542475
thorax -5.6692 -0.257677 2.03295
lowerneck -7.64335 8.42842 15.8766
upperneck 25.8699 12.3963 -12.2325
head 11.4445 5.97319 -5.57399
rclavicle 1.51496e-015 -1.13804e-014
rhumerus -24.4104 6.49347 -67.5553
rradius 105.027
rwrist 7.85115
rhand -41.7821 11.0927
rfingers 7.12502
rthumb -14.6853 -18.3673
lclavicle 1.51496e-015 -1.13804e-014
lhumerus -45.1153 -20.3972 82.8822
lradius 123.726
lwrist 2.22083
lhand -21.5783 9.77113
lfingers 7.12502
lthumb 4.81601 39.6964
rfemur -40.0861 2.40929 4.91019
rtibia 31.8615
rfoot -1.1492 -7.97784
rtoes -14.6246
lfemur -2.53288 -2.80304 -20.0591
ltibia 13.521
lfoot -19.2796 19.9224
ltoes -4.81704
1466
root 1.50856 15.5708 8.07527 11.7535 -7.34768 -0.128191
lowerback 0.14954 -0.54407 -2.59638
upperback -5.44604 -0.798213 0.542952
thorax -5.6826 -0.260974 2.05824
lowerneck -7.87053 8.21579 15.5816
upperneck 26.0287 12.0887 -12.087
head 11.4636 5.81338 -5.51498
rclavicle 1.17625e-014 1.1281e-014
rhumerus -23.9751 6.75645 -67.9818
rradius 105.296
rwrist 8.3395
rhand -42.2106 11.0723
rfingers 7.12502
rthumb -15.098 -18.357
lclavicle 1.17625e-014 1.1281e-014
lhumerus -44.5687 -20.9921 83.3198
lradius 124.506
lwrist 2.35523
lhand -21.8767 9.69052
lfingers 7.12502
lthumb 4.52788 39.6221
rfemur -39.8584 3.224 3.97627
rtibia 30.2433
rfoot 0.366058 -8.52166
rtoes -14.5986
lfemur -1.85723 -3.14811 -19.6814
ltibia 12.1971
lfoot -18.6188 19.3499
ltoes -5.31818
1467
root 1.44234 15.5779 8.12974 11.8082 -6.27124 -0.0916664
lowerback 0.122899 -0.543511 -2.61676
upperback -5.46669 -0.79654 0.54323
thorax -5.68911 -0.258375 2.06966
lowerneck -8.11249 7.98731 15.2617
upperneck 26.1856 11.756 -11.9206
head 11.4793 5.64167 -5.44683
rclavicle -1.53748e-015 -1.2424e-014
rhumerus -23.5454 7.04987 -68.4232
rradius 105.57
rwrist 8.7753
rhand -42.4032 10.921
rfingers 7.12502
rthumb -15.2835 -18.4943
lclavicle -1.53748e-015 -1.2424e-014
lhumerus -43.9928 -21.6773 83.8028
lradius 125.21
lwrist 2.44279
lhand -22.1723 9.57951
lfingers 7.12502
lthumb 4.24243 39.517
rfemur -39.6127 4.02117 3.06388
rtibia 28.8365
rfoot 1.69586 -9.00649
rtoes -14.6224
lfemur -1.12972 -3.51379 -19.2632
ltibia 10.7521
lfoot -17.9018 18.7545
ltoes -5.83995
1468
root 1.37273 15.5841 8.18576 11.8682 -5.14668 -0.0646527
lowerback 0.0945804 -0.530031 -2.61786
upperback -5.4887 -0.77695 0.539867
thorax -5.69727 -0.247809 2.0656
lowerneck -8.35647 7.73701 14.9111
upperneck 26.3411 11.3906 -11.7252
head 11.4873 5.45535 -5.36692
rclavicle 7.8551e-015 -1.39149e-014
rhumerus -23.1293 7.36203 -68.8774
rradius 105.868
rwrist 9.11384
rhand -42.3428 10.6284
rfingers 7.12502
rthumb -15.2254 -18.7914
lclavicle 7.8551e-015 -1.39149e-014
lhumerus -43.3924 -22.4537 84.3208
lradius 125.836
lwrist 2.46705
lhand -22.4363 9.43795
lfingers 7.12502
lthumb 3.98745 39.3804
rfemur -39.3609 4.73296 2.21995
rtibia 27.6667
rfoot 2.83271 -9.39545
rtoes -14.6466
lfemur -0.341316 -4.11842 -18.8057
ltibia 9.15529
lfoot -17.1068 18.3475
ltoes -6.35718
1469
root 1.29966 15.5891 8.24362 11.9303 -3.97458 -0.0430638
lowerback 0.0605806 -0.504187 -2.60424
upperback -5.50823 -0.74016 0.533329
thorax -5.70063 -0.229544 2.04906
lowerneck -8.60616 7.46271 14.5217
upperneck 26.4972 10.9903 -11.4983
head 11.4887 5.25276 -5.27316
rclavicle 2.01968e-015 8.00108e-015
rhumerus -22.7019 7.68121 -69.338
rradius 106.163
rwrist 9.41211
rhand -42.1401 10.3211
rfingers 7.12502
rthumb -15.0301 -19.1133
lclavicle 2.01968e-015 8.00108e-015
lhumerus -42.7601 -23.3106 84.864
lradius 126.379
lwrist 2.41231
lhand -22.6611 9.27901
lfingers 7.12502
lthumb 3.7704 39.2254
rfemur -39.1004 5.2999 1.48708
rtibia 26.7491
rfoot 3.79986 -9.65526
rtoes -14.6437
lfemur 0.547094 -4.77536 -18.3211
ltibia 7.33439
lfoot -16.2017 17.9447
ltoes -6.88449
1470
root 1.22298 15.5925 8.30323 11.9952 -2.75955 -0.0294638
lowerback 0.0247669 -0.46214 -2.57165
upperback -5.53293 -0.681181 0.521976
thorax -5.70975 -0.201111 2.01583
lowerneck -8.8452 7.15695 14.0915
upperneck 26.6572 10.5468 -11.238
head 11.481 5.03089 -5.16613
rclavicle 1.29086e-014 1.23246e-014
rhumerus -22.2746 7.99172 -69.798
rradius 106.441
rwrist 9.69089
rhand -41.993 10.1181
rfingers 7.12502
rthumb -14.8884 -19.3269
lclavicle 1.29086e-014 1.23246e-014
lhumerus -42.1066 -24.2464 85.4291
lradius 126.837
lwrist 2.27605
lhand -22.8241 9.10878
lfingers 7.12502
lthumb 3.61296 39.0579
rfemur -38.8311 5.67102 0.911009
rtibia 26.0872
rfoot 4.63365 -9.76887
rtoes -14.5838
lfemur 1.63631 -5.4752 -17.8088
ltibia 5.08411
lfoot -15.0781 17.5353
ltoes -7.41791
